<svg width="92" height="100" viewBox="0 0 92 100" fill="none" xmlns="http://www.w3.org/2000/svg">
<path d="M37.5859 5.27734C42.7081 2.33617 49.0254 2.24539 54.2275 5.00098L54.7275 5.27637L54.7314 5.27832L80.4062 20.042L80.4072 20.043C85.704 23.0905 89 28.7653 89 34.8691V64.7822C89 70.6939 85.9126 76.2063 80.8975 79.3164L80.4062 79.6094L54.7363 94.3682L54.7314 94.3711C52.1095 95.8729 49.1296 96.6592 46.1377 96.6592C43.144 96.6592 40.1889 95.8708 37.5879 94.3799V94.3809L11.6328 79.543H11.6318C6.29814 76.4914 2.98865 70.7982 3 64.6699L3.02832 34.9541V34.9463C3.03963 31.9339 3.84272 28.9839 5.3418 26.3936L5.34961 26.3799C6.87374 23.7782 9.04426 21.6266 11.6445 20.1377L37.5859 5.27637V5.27734Z" fill="white" stroke="#F4F4F4" stroke-width="6"/>
<path d="M49 58.8298V40.8298C49 40.0341 48.6839 39.2711 48.1213 38.7085C47.5587 38.1458 46.7956 37.8298 46 37.8298H34C33.2044 37.8298 32.4413 38.1458 31.8787 38.7085C31.3161 39.2711 31 40.0341 31 40.8298V57.3298C31 57.7276 31.158 58.1091 31.4393 58.3904C31.7206 58.6717 32.1022 58.8298 32.5 58.8298H35.5M35.5 58.8298C35.5 60.4866 36.8431 61.8298 38.5 61.8298C40.1569 61.8298 41.5 60.4866 41.5 58.8298M35.5 58.8298C35.5 57.1729 36.8431 55.8298 38.5 55.8298C40.1569 55.8298 41.5 57.1729 41.5 58.8298M50.5 58.8298H41.5M50.5 58.8298C50.5 60.4866 51.8431 61.8298 53.5 61.8298C55.1569 61.8298 56.5 60.4866 56.5 58.8298M50.5 58.8298C50.5 57.1729 51.8431 55.8298 53.5 55.8298C55.1569 55.8298 56.5 57.1729 56.5 58.8298M56.5 58.8298H59.5C59.8978 58.8298 60.2794 58.6717 60.5607 58.3904C60.842 58.1091 61 57.7276 61 57.3298V51.8548C60.9994 51.5144 60.883 51.1843 60.67 50.9188L55.45 44.3938C55.3097 44.2181 55.1317 44.0762 54.9292 43.9786C54.7267 43.8809 54.5048 43.8301 54.28 43.8298H49" stroke="#4D4D4D" stroke-width="2" stroke-linecap="round" stroke-linejoin="round"/>
</svg>
