<svg width="92" height="100" viewBox="0 0 92 100" fill="none" xmlns="http://www.w3.org/2000/svg">
<path d="M37.5859 5.27734C42.7081 2.33617 49.0254 2.24539 54.2275 5.00098L54.7275 5.27637L54.7314 5.27832L80.4062 20.042L80.4072 20.043C85.704 23.0905 89 28.7653 89 34.8691V64.7822C89 70.6939 85.9126 76.2063 80.8975 79.3164L80.4062 79.6094L54.7363 94.3682L54.7314 94.3711C52.1095 95.8729 49.1296 96.6592 46.1377 96.6592C43.144 96.6592 40.1889 95.8708 37.5879 94.3799V94.3809L11.6328 79.543H11.6318C6.29814 76.4914 2.98865 70.7982 3 64.6699L3.02832 34.9541V34.9463C3.03963 31.9339 3.84272 28.9839 5.3418 26.3936L5.34961 26.3799C6.87374 23.7782 9.04426 21.6266 11.6445 20.1377L37.5859 5.27637V5.27734Z" fill="white" stroke="#F4F4F4" stroke-width="6"/>
<path d="M48.9998 37.9798L45.9998 40.8298M35.6498 43.8298L31.2998 42.6298M36.9998 49.8298L34.1498 52.8298M38.7998 35.1298L39.9998 39.4798M41.5553 46.3648C41.4971 46.2277 41.4812 46.0765 41.5096 45.9303C41.538 45.7842 41.6095 45.6499 41.7147 45.5447C41.82 45.4394 41.9543 45.368 42.1004 45.3396C42.2465 45.3112 42.3978 45.3271 42.5348 45.3853L59.0348 52.1353C59.1817 52.1955 59.3056 52.3008 59.3888 52.436C59.472 52.5711 59.5102 52.7292 59.4979 52.8874C59.4855 53.0457 59.4233 53.1959 59.3202 53.3166C59.217 53.4372 59.0782 53.522 58.9238 53.5588L52.4003 55.1203C52.131 55.1846 51.8848 55.3222 51.6888 55.5178C51.4929 55.7135 51.355 55.9595 51.2903 56.2288L49.7303 62.7538C49.694 62.9087 49.6092 63.0481 49.4885 63.1517C49.3677 63.2553 49.217 63.3178 49.0584 63.3302C48.8997 63.3425 48.7412 63.3041 48.6059 63.2204C48.4705 63.1368 48.3652 63.0122 48.3053 62.8648L41.5553 46.3648Z" stroke="#4D4D4D" stroke-width="2" stroke-linecap="round" stroke-linejoin="round"/>
</svg>
