<svg width="92" height="100" viewBox="0 0 92 100" fill="none" xmlns="http://www.w3.org/2000/svg">
<path d="M37.5859 5.27734C42.7081 2.33618 49.0254 2.24539 54.2275 5.00098L54.7275 5.27637L54.7314 5.27832L80.4062 20.042L80.4072 20.043C85.704 23.0905 89 28.7653 89 34.8691V64.7822C89 70.6939 85.9126 76.2063 80.8975 79.3164L80.4062 79.6094L54.7363 94.3682L54.7314 94.3711C52.1095 95.8729 49.1296 96.6592 46.1377 96.6592C43.144 96.6592 40.1889 95.8708 37.5879 94.3799V94.3809L11.6328 79.543H11.6318C6.29814 76.4914 2.98865 70.7981 3 64.6699L3.02832 34.9541V34.9463C3.03963 31.9339 3.84272 28.9839 5.3418 26.3936L5.34961 26.3799C6.87373 23.7782 9.04425 21.6266 11.6445 20.1377L37.5859 5.27637V5.27734Z" fill="white" stroke="#F4F4F4" stroke-width="6"/>
<path d="M55.135 47.3848C56.553 47.9134 57.8147 48.7911 58.8036 49.9366C59.7925 51.0821 60.4766 52.4584 60.7926 53.9384C61.1086 55.4183 61.0464 56.954 60.6116 58.4035C60.1768 59.853 59.3835 61.1695 58.3051 62.2312C57.2268 63.2929 55.8981 64.0655 54.442 64.4776C52.9859 64.8897 51.4494 64.928 49.9745 64.589C48.4997 64.2499 47.1342 63.5444 46.0042 62.5378C44.8743 61.5311 44.0165 60.2558 43.51 58.8298M38.5 40.8298H40V46.8298M53.065 52.6498L54.115 53.7148L49.885 57.9448M49 43.8298C49 48.8003 44.9706 52.8298 40 52.8298C35.0294 52.8298 31 48.8003 31 43.8298C31 38.8592 35.0294 34.8298 40 34.8298C44.9706 34.8298 49 38.8592 49 43.8298Z" stroke="#4D4D4D" stroke-width="2" stroke-linecap="round" stroke-linejoin="round"/>
</svg>
