<svg width="19" height="21" viewBox="0 0 19 21" fill="none" xmlns="http://www.w3.org/2000/svg">
<path d="M1.6836 3.93983L7.78144 0.444851C8.81955 -0.148284 10.1083 -0.148284 11.1442 0.444851L17.3053 3.96294C17.8144 4.25345 18.2403 4.67382 18.5397 5.18332C18.8336 5.68952 18.9911 6.26615 18.9933 6.85488L19 13.89C19.0022 15.0839 18.3545 16.1965 17.3086 16.7929L11.1442 20.3055C10.634 20.5971 10.054 20.7512 9.46727 20.7512C8.88056 20.7512 8.29495 20.5971 7.78033 20.3033L1.6836 16.8094C0.644369 16.2141 -1.71661e-05 15.1048 -1.71661e-05 13.9153V6.83397C-1.71661e-05 5.6444 0.645479 4.53517 1.6836 3.93983Z" fill="#66BC98"/>
</svg>
