<svg width="92" height="100" viewBox="0 0 92 100" fill="none" xmlns="http://www.w3.org/2000/svg">
<path d="M37.5859 5.27734C42.7081 2.33617 49.0254 2.24539 54.2275 5.00098L54.7275 5.27637L54.7314 5.27832L80.4062 20.042L80.4072 20.043C85.704 23.0905 89 28.7653 89 34.8691V64.7822C89 70.6939 85.9126 76.2063 80.8975 79.3164L80.4062 79.6094L54.7363 94.3682L54.7314 94.3711C52.1095 95.8729 49.1296 96.6592 46.1377 96.6592C43.144 96.6592 40.1889 95.8708 37.5879 94.3799V94.3809L11.6328 79.543H11.6318C6.29814 76.4914 2.98865 70.7982 3 64.6699L3.02832 34.9541V34.9463C3.03963 31.9339 3.84272 28.9839 5.3418 26.3936L5.34961 26.3799C6.87374 23.7782 9.04426 21.6266 11.6445 20.1377L37.5859 5.27637V5.27734Z" fill="white" stroke="#F4F4F4" stroke-width="6"/>
<path d="M49 34.8298V40.8298C49 41.6255 49.3161 42.3885 49.8787 42.9512C50.4413 43.5138 51.2044 43.8298 52 43.8298H58M34.402 63.3298C34.6647 63.7848 35.0422 64.1628 35.4968 64.426C35.9514 64.6893 36.4672 64.8285 36.9925 64.8298H55C55.7956 64.8298 56.5587 64.5138 57.1213 63.9512C57.6839 63.3885 58 62.6255 58 61.8298V42.3298L50.5 34.8298H37C36.2044 34.8298 35.4413 35.1459 34.8787 35.7085C34.3161 36.2711 34 37.0342 34 37.8298V42.3298M41.5 58.8298L39.25 56.5798M40 52.8298C40 55.3151 37.9853 57.3298 35.5 57.3298C33.0147 57.3298 31 55.3151 31 52.8298C31 50.3446 33.0147 48.3298 35.5 48.3298C37.9853 48.3298 40 50.3446 40 52.8298Z" stroke="#4D4D4D" stroke-width="2" stroke-linecap="round" stroke-linejoin="round"/>
</svg>
