<svg width="92" height="100" viewBox="0 0 92 100" fill="none" xmlns="http://www.w3.org/2000/svg">
<path d="M37.5859 5.27734C42.7081 2.33617 49.0254 2.24539 54.2275 5.00098L54.7275 5.27637L54.7314 5.27832L80.4062 20.042L80.4072 20.043C85.704 23.0905 89 28.7653 89 34.8691V64.7822C89 70.6939 85.9126 76.2063 80.8975 79.3164L80.4062 79.6094L54.7363 94.3682L54.7314 94.3711C52.1095 95.8729 49.1296 96.6592 46.1377 96.6592C43.144 96.6592 40.1889 95.8708 37.5879 94.3799V94.3809L11.6328 79.543H11.6318C6.29814 76.4914 2.98865 70.7982 3 64.6699L3.02832 34.9541V34.9463C3.03963 31.9339 3.84272 28.9839 5.3418 26.3936L5.34961 26.3799C6.87374 23.7782 9.04426 21.6266 11.6445 20.1377L37.5859 5.27637V5.27734Z" fill="white" stroke="#F4F4F4" stroke-width="6"/>
<path d="M46.0001 40.8299V49.8299L49.0001 51.3299M46.5056 64.8209C43.4404 64.924 40.4173 64.0852 37.8436 62.4173C35.2699 60.7495 33.2692 58.3328 32.1113 55.4929C30.9533 52.6531 30.6937 49.5265 31.3673 46.5345C32.041 43.5425 33.6156 40.8289 35.8789 38.7594C38.1423 36.6899 40.9856 35.3638 44.0258 34.96C47.0659 34.5561 50.1569 35.0939 52.882 36.5008C55.6072 37.9076 57.8356 40.1161 59.267 42.8284C60.6984 45.5407 61.264 48.6267 60.8876 51.6704M49.0001 58.8299L55.0001 64.8299M55.0001 64.8299L61.0001 58.8299M55.0001 64.8299V52.8299" stroke="#4D4D4D" stroke-width="2" stroke-linecap="round" stroke-linejoin="round"/>
</svg>
