<svg width="92" height="100" viewBox="0 0 92 100" fill="none" xmlns="http://www.w3.org/2000/svg">
<path d="M37.5859 5.27734C42.7081 2.33617 49.0254 2.24539 54.2275 5.00098L54.7275 5.27637L54.7314 5.27832L80.4062 20.042L80.4072 20.043C85.704 23.0905 89 28.7653 89 34.8691V64.7822C89 70.6939 85.9126 76.2063 80.8975 79.3164L80.4062 79.6094L54.7363 94.3682L54.7314 94.3711C52.1095 95.8729 49.1296 96.6592 46.1377 96.6592C43.144 96.6592 40.1889 95.8708 37.5879 94.3799V94.3809L11.6328 79.543H11.6318C6.29814 76.4914 2.98865 70.7982 3 64.6699L3.02832 34.9541V34.9463C3.03963 31.9339 3.84272 28.9839 5.3418 26.3936L5.34961 26.3799C6.87374 23.7782 9.04426 21.6266 11.6445 20.1377L37.5859 5.27637V5.27734Z" fill="white" stroke="#F4F4F4" stroke-width="6"/>
<path d="M38.5 62.8228V60.3298C38.5 59.5342 38.8161 58.7711 39.3787 58.2085C39.9413 57.6459 40.7044 57.3298 41.5 57.3298H50.5C51.2956 57.3298 52.0587 57.6459 52.6213 58.2085C53.1839 58.7711 53.5 59.5342 53.5 60.3298V62.8228M61 49.8298C61 58.1141 54.2843 64.8298 46 64.8298C37.7157 64.8298 31 58.1141 31 49.8298C31 41.5456 37.7157 34.8298 46 34.8298C54.2843 34.8298 61 41.5456 61 49.8298ZM50.5 46.8298C50.5 49.3151 48.4853 51.3298 46 51.3298C43.5147 51.3298 41.5 49.3151 41.5 46.8298C41.5 44.3446 43.5147 42.3298 46 42.3298C48.4853 42.3298 50.5 44.3446 50.5 46.8298Z" stroke="#4D4D4D" stroke-width="2" stroke-linecap="round" stroke-linejoin="round"/>
</svg>
