<svg width="92" height="100" viewBox="0 0 92 100" fill="none" xmlns="http://www.w3.org/2000/svg">
<path d="M37.5859 5.27734C42.7081 2.33617 49.0254 2.24539 54.2275 5.00098L54.7275 5.27637L54.7314 5.27832L80.4062 20.042L80.4072 20.043C85.704 23.0905 89 28.7653 89 34.8691V64.7822C89 70.6939 85.9126 76.2063 80.8975 79.3164L80.4062 79.6094L54.7363 94.3682L54.7314 94.3711C52.1095 95.8729 49.1296 96.6592 46.1377 96.6592C43.144 96.6592 40.1889 95.8708 37.5879 94.3799V94.3809L11.6328 79.543H11.6318C6.29814 76.4914 2.98865 70.7982 3 64.6699L3.02832 34.9541V34.9463C3.03963 31.9339 3.84272 28.9839 5.3418 26.3936L5.34961 26.3799C6.87374 23.7782 9.04426 21.6266 11.6445 20.1377L37.5859 5.27637V5.27734Z" fill="white" stroke="#F4F4F4" stroke-width="6"/>
<path d="M49.7501 64.8298H55.0001C55.7958 64.8298 56.5588 64.5138 57.1214 63.9512C57.684 63.3885 58.0001 62.6255 58.0001 61.8298V42.3298L50.5001 34.8298H37.0001C36.2045 34.8298 35.4414 35.1459 34.8788 35.7085C34.3162 36.2711 34.0001 37.0342 34.0001 37.8298V43.8298M49.0001 34.8298V40.8298C49.0001 41.6255 49.3162 42.3885 49.8788 42.9512C50.4414 43.5138 51.2045 43.8298 52.0001 43.8298H58.0001M38.5001 57.3298V64.8298M38.5001 57.3298L45.5501 53.1298M38.5001 57.3298L31.4501 53.1298M32.5001 51.4798C32.0378 51.7467 31.6551 52.132 31.3915 52.5961C31.1278 53.0601 30.9927 53.5861 31.0001 54.1198V58.9798C30.9827 59.5142 31.1085 60.0434 31.3643 60.5128C31.6201 60.9823 31.9967 61.3748 32.4551 61.6498L37.0001 64.3798C37.4601 64.6539 37.9851 64.7997 38.5206 64.8024C39.056 64.805 39.5824 64.6643 40.0451 64.3948L44.5001 61.6798C44.9624 61.413 45.3451 61.0277 45.6088 60.5636C45.8725 60.0996 46.0075 59.5735 46.0001 59.0398V54.1798C46.0175 53.6455 45.8918 53.1163 45.636 52.6468C45.3801 52.1774 45.0035 51.7849 44.5451 51.5098L40.0001 48.7798C39.5401 48.5058 39.0151 48.3599 38.4797 48.3573C37.9442 48.3546 37.4178 48.4954 36.9551 48.7648L32.5001 51.4798Z" stroke="#4D4D4D" stroke-width="2" stroke-linecap="round" stroke-linejoin="round"/>
</svg>
