<svg width="92" height="100" viewBox="0 0 92 100" fill="none" xmlns="http://www.w3.org/2000/svg">
<rect width="80" height="87.6596" transform="translate(6 6)" fill="white"/>
<path d="M37.5859 5.27734C42.7081 2.33617 49.0254 2.24539 54.2275 5.00098L54.7275 5.27637L54.7314 5.27832L80.4062 20.042L80.4072 20.043C85.704 23.0905 89 28.7653 89 34.8691V64.7822C89 70.6939 85.9126 76.2063 80.8975 79.3164L80.4062 79.6094L54.7363 94.3682L54.7314 94.3711C52.1095 95.8729 49.1296 96.6592 46.1377 96.6592C43.144 96.6592 40.1889 95.8708 37.5879 94.3799V94.3809L11.6328 79.543H11.6318C6.29814 76.4914 2.98865 70.7982 3 64.6699L3.02832 34.9541V34.9463C3.03963 31.9339 3.84272 28.9839 5.3418 26.3936L5.34961 26.3799C6.87374 23.7782 9.04426 21.6266 11.6445 20.1377L37.5859 5.27637V5.27734Z" fill="white" stroke="#F4F4F4" stroke-width="6"/>
<path d="M32.5 49.8298C32.5 52.4998 33.2918 55.1099 34.7752 57.33C36.2586 59.55 38.367 61.2804 40.8338 62.3021C43.3006 63.3239 46.015 63.5913 48.6337 63.0704C51.2525 62.5495 53.6579 61.2637 55.5459 59.3757C57.4339 57.4877 58.7197 55.0822 59.2406 52.4635C59.7615 49.8447 59.4942 47.1303 58.4724 44.6635C57.4506 42.1967 55.7203 40.0883 53.5002 38.6049C51.2801 37.1215 48.67 36.3298 46 36.3298C42.2259 36.344 38.6035 37.8166 35.89 40.4398L32.5 43.8298M32.5 43.8298V36.3298M32.5 43.8298H40M46 42.3298V49.8298L52 52.8298" stroke="#4D4D4D" stroke-width="2" stroke-linecap="round" stroke-linejoin="round"/>
</svg>
